<svg xmlns="http://www.w3.org/2000/svg" width="19.071" height="20.786" viewBox="0 0 19.071 20.786"><defs><style>.a{fill:#707070;}</style></defs><path class="a" d="M31.419,19.562,29.212,7.25a1.04,1.04,0,0,0-1.024-.856h-3.67a3.735,3.735,0,1,0-5.238,0h-3.67a1.04,1.04,0,0,0-1.024.856L12.38,19.562A1.04,1.04,0,0,0,13.4,20.786H30.4a1.04,1.04,0,0,0,1.024-1.223ZM21.9,2.08a1.655,1.655,0,1,1-1.655,1.655A1.656,1.656,0,0,1,21.9,2.08Zm-.272,14.014a.31.31,0,0,1-.272.162h-.491A.31.31,0,0,1,20.6,16.1L19.383,14.03l-.776.793v.955a.479.479,0,1,1-.958,0V11.992a.479.479,0,1,1,.958,0v1.627l1.843-2.006a.31.31,0,0,1,.228-.1H21.1a.31.31,0,0,1,.223.525L20.043,13.36l1.572,2.417A.31.31,0,0,1,21.628,16.094Zm4.718-.632a.31.31,0,0,1-.117.242,2.881,2.881,0,0,1-.755.411,3.174,3.174,0,0,1-1.157.222,2.6,2.6,0,0,1-1.3-.312,1.985,1.985,0,0,1-.831-.893,2.885,2.885,0,0,1-.278-1.263,2.729,2.729,0,0,1,.311-1.317,2.092,2.092,0,0,1,.909-.883,2.453,2.453,0,0,1,1.136-.236,2.266,2.266,0,0,1,1.38.371,1.617,1.617,0,0,1,.364.374.489.489,0,0,1-.311.759h0a.474.474,0,0,1-.488-.213.977.977,0,0,0-.253-.27,1.14,1.14,0,0,0-.691-.2,1.3,1.3,0,0,0-1,.4,1.677,1.677,0,0,0-.37,1.181,1.857,1.857,0,0,0,.375,1.267,1.253,1.253,0,0,0,.984.422,1.648,1.648,0,0,0,.6-.118,2.075,2.075,0,0,0,.519-.286v-.6h-.7a.4.4,0,1,1,0-.8h1.355a.31.31,0,0,1,.31.31Z" transform="translate(-12.364)"/></svg>