<svg xmlns="http://www.w3.org/2000/svg" xmlns:xlink="http://www.w3.org/1999/xlink" width="6" height="11" viewBox="0 0 6 11"><defs><style>.a{fill:none;}.b{clip-path:url(#a);}.c{fill:#fff;stroke:#707070;}.d{stroke:none;}</style><clipPath id="a"><rect class="a" width="6" height="11"/></clipPath></defs><g class="b"><g transform="translate(-10 -20)"><g class="c" transform="translate(10 20)"><circle class="d" cx="1" cy="1" r="1"/><circle class="a" cx="1" cy="1" r="0.5"/></g></g><g transform="translate(-6 -20)"><g class="c" transform="translate(10 20)"><circle class="d" cx="1" cy="1" r="1"/><circle class="a" cx="1" cy="1" r="0.5"/></g></g><g transform="translate(-10 -16)"><g class="c" transform="translate(10 20)"><circle class="d" cx="1" cy="1" r="1"/><circle class="a" cx="1" cy="1" r="0.5"/></g></g><g transform="translate(-6 -16)"><g class="c" transform="translate(10 20)"><circle class="d" cx="1" cy="1" r="1"/><circle class="a" cx="1" cy="1" r="0.5"/></g></g><g transform="translate(-10 -12)"><g class="c" transform="translate(10 20)"><circle class="d" cx="1" cy="1" r="1"/><circle class="a" cx="1" cy="1" r="0.5"/></g></g><g transform="translate(-6 -12)"><g class="c" transform="translate(10 20)"><circle class="d" cx="1" cy="1" r="1"/><circle class="a" cx="1" cy="1" r="0.5"/></g></g></g></svg>